<svg xmlns="http://www.w3.org/2000/svg" width="32" height="32" fill="none"><path fill="#FAEFE2" d="M0 0h32v32H0z"/><path fill="#F06517" d="M2 2h14c7.732 0 14 6.268 14 14s-6.268 14-14 14S2 23.732 2 16V2z"/><path fill="#F5F5F5" fill-rule="evenodd" d="M18.277 13.23c-.634-.642-1.53-.963-2.688-.963h-2.856v4.444c.047-.07.097-.137.149-.203.938-1.2 2.476-1.688 3.406-1.882a.72.72 0 0 1 .866.676c.036.95-.068 2.56-1.006 3.76a4.13 4.13 0 0 1-.576.597h.017c1.158 0 2.054-.322 2.688-.964.635-.642.952-1.553.952-2.732 0-1.188-.317-2.098-.952-2.733z" clip-rule="evenodd"/></svg>