<svg xmlns="http://www.w3.org/2000/svg" width="32" height="32" fill="none"><rect width="30.996" height="30.996" x=".502" y=".502" stroke="#000" stroke-width="1.004" rx="15.498"/><path fill="#fff" fill-rule="evenodd" d="M15.763 11.23a7.111 7.111 0 1 1-6.467 10.073h-.052a2.37 2.37 0 0 1-.376-4.71 7.114 7.114 0 0 1 6.895-5.363zm-6.997 7.275.246.916z" clip-rule="evenodd"/><path stroke="#000" stroke-linecap="round" stroke-linejoin="round" stroke-width=".711" d="m8.766 18.505.246.916m6.75-8.191a7.111 7.111 0 1 1-6.466 10.073h-.052a2.37 2.37 0 0 1-.376-4.71 7.114 7.114 0 0 1 6.895-5.363z"/><path stroke="#000" stroke-linecap="round" stroke-linejoin="round" stroke-width=".474" d="M19.94 16.83c-.309.676-.464 1.345-.464 2.007 0 .991.465 1.518.378 1.98-.058.307-.503.361-1.335.162"/><path stroke="#000" stroke-linecap="round" stroke-linejoin="round" stroke-width=".474" d="M15.763 22.518c1.107-.095 1.937-.194 2.489-.296.551-.102 1.272-.29 2.163-.563l-.652 1.452c-.676.23-1.18.358-1.511.385-.332.027-.806-.022-1.423-.148l-1.066-.83z" clip-rule="evenodd"/><path fill="#000" fill-rule="evenodd" d="M16.888 15.289a.711.711 0 1 1 0 1.422.711.711 0 0 1 0-1.422zm4.089 0a.711.711 0 1 1 0 1.422.711.711 0 0 1 0-1.422z" clip-rule="evenodd"/><path fill="#000" fill-rule="evenodd" stroke="#000" stroke-linecap="round" stroke-linejoin="round" stroke-width=".474" d="M22.43 14.435c0 .214-.633.214-1.186.214-.553 0-1.66.107-1.66 0s1.008-.427 1.66-.427h.097c.607 0 1.088.01 1.088.213zm-5.808-.213c.652 0 1.659.32 1.659.427 0 .107-1.106 0-1.66 0-.552 0-1.184 0-1.184-.213 0-.203.48-.213 1.088-.214h.097z" clip-rule="evenodd"/><path fill="#000" fill-rule="evenodd" stroke="#000" stroke-linecap="round" stroke-linejoin="round" stroke-width=".119" d="M17.014 14.884c.368.027.794.12 1.28.277.14.046.359.072.66.08l.02-.001c.29-.008.502-.034.638-.079a5.54 5.54 0 0 1 1.28-.277c.522-.037 1.361.026 2.52.19l.035.005v.614c-.149.065-.224.13-.227.194-.064 1.584-.593 2.069-1.778 2.069-1.14 0-1.683-.62-2.166-1.908-.063-.168-.168-.255-.314-.258h-.009c-.15 0-.258.086-.323.258-.483 1.288-1.025 1.908-2.166 1.908-1.185 0-1.713-.485-1.778-2.07-.003-.063-.078-.128-.226-.193v.01l-5.897.593.119-.266 5.778-.949v-.002c1.176-.168 2.027-.232 2.553-.195zm-.284.197c-.938-.065-1.358.129-1.552.355-.194.226-.55 2.198 1.164 2.295 1.713.097 1.875-1.907 1.778-2.133-.097-.227-.453-.453-1.39-.517zm4.443 0c-.937.064-1.293.29-1.39.517-.097.226.065 2.23 1.778 2.133 1.713-.097 1.358-2.069 1.164-2.295-.194-.226-.614-.42-1.552-.355z" clip-rule="evenodd"/><path fill="#000" fill-rule="evenodd" stroke="#000" stroke-linecap="round" stroke-linejoin="round" stroke-width=".356" d="M8.505 16.735H9.72l1.123 2.672c.52-2.383.781-3.749.781-4.096 0-.348-.13-1.051-.387-2.11.42-.388.743-.56.969-.52.477.088 2.937.883 4.11.978 1.59.13 3.581-.29 4.364-.486 1.618-.407 2.34-1.774 2.167-4.1-.794.32-1.565.424-2.315.311-1.125-.168-2.796-1.055-4.098-1.32-1.82-.37-3.117-.415-3.77-.208-1.248.394-2.129 1.72-2.643 3.98-.99.324-1.604.799-1.841 1.425-.238.625-.129 1.783.326 3.474z" clip-rule="evenodd"/></svg>