<svg xmlns="http://www.w3.org/2000/svg" width="141" height="17" fill="none"><path fill="url(#a)" d="M136.292 16v-1.516a12.47 12.47 0 0 1-1.719.775 16.423 16.423 0 0 1-3.942.92c-.696.083-1.4.124-2.111.124a12.18 12.18 0 0 1-2.415-.236 6.647 6.647 0 0 1-2.055-.763 4.258 4.258 0 0 1-1.448-1.382c-.36-.569-.54-1.265-.54-2.088 0-1.041.285-1.906.854-2.595.569-.696 1.438-1.265 2.605-1.707 1.168-.442 2.643-.782 4.425-1.022 1.79-.24 3.905-.426 6.346-.561v-.326c0-.255-.068-.505-.203-.752-.134-.255-.381-.476-.741-.663-.352-.195-.838-.352-1.46-.472-.614-.12-1.4-.18-2.358-.18-.756 0-1.505.042-2.246.124-.734.075-1.445.18-2.134.315a22.41 22.41 0 0 0-1.943.471 20.67 20.67 0 0 0-1.673.562V1.322a31.045 31.045 0 0 1 1.763-.393 31.16 31.16 0 0 1 2.033-.326 33.166 33.166 0 0 1 2.133-.225c.719-.06 1.408-.09 2.067-.09 1.295 0 2.489.11 3.582.326 1.093.21 2.033.54 2.819.989.794.449 1.411 1.018 1.853 1.707.449.688.674 1.508.674 2.459V16h-4.166Zm0-7.041c-1.603.06-2.965.145-4.088.258-1.116.112-2.044.243-2.786.393-.741.15-1.325.31-1.751.483-.42.172-.734.348-.944.528-.209.18-.341.359-.393.539-.045.18-.067.344-.067.494 0 .18.048.355.146.528.097.164.265.31.505.438.247.127.573.228.977.303.404.075.914.112 1.527.112.682 0 1.348-.052 1.999-.157.652-.105 1.27-.247 1.854-.427a12.49 12.49 0 0 0 1.639-.651c.517-.255.977-.524 1.382-.809V8.96Z"/><path fill="url(#b)" d="M95.255.57v1.695c.367-.232.764-.472 1.19-.719A10.596 10.596 0 0 1 99.478.378a8.38 8.38 0 0 1 1.888-.202c.659 0 1.235.071 1.729.214.494.134.921.314 1.281.539.366.217.677.464.932.74.254.27.475.54.662.81a25.683 25.683 0 0 1 1.573-.944 12.635 12.635 0 0 1 1.561-.73 9.347 9.347 0 0 1 1.605-.46 8.471 8.471 0 0 1 1.708-.169c.943 0 1.785.131 2.526.393.749.262 1.382.622 1.898 1.078.517.457.91.996 1.18 1.618a4.75 4.75 0 0 1 .415 1.976V16h-4.166V5.836c0-.411-.064-.767-.191-1.066a1.963 1.963 0 0 0-1.269-1.146 3.008 3.008 0 0 0-.91-.135c-1.497 0-3.205.674-5.121 2.022.022.127.037.277.045.449.015.172.022.344.022.517V16h-4.166V5.747c0-.412-.064-.76-.191-1.045a1.81 1.81 0 0 0-.528-.707 1.934 1.934 0 0 0-.764-.382 3.25 3.25 0 0 0-.909-.124c-.39 0-.802.056-1.236.169-.427.112-.86.27-1.302.471-.435.203-.865.442-1.292.72-.42.276-.82.576-1.202.898V16H91.09V.57h4.166Z"/><path fill="url(#c)" d="M82.082 16V.57h4.167V16h-4.167Z"/><path fill="url(#d)" d="M72.03 8.083 79.354 16h-4.997l-4.83-5.2L64.72 16h-4.987l7.311-7.917L60.093.569h4.997l4.436 4.83 4.459-4.83h4.997l-6.951 7.514Z"/><path fill="url(#e)" d="M58.026 8.296c0 1.325-.243 2.497-.73 3.515a6.857 6.857 0 0 1-2.088 2.538c-.906.681-2.007 1.198-3.302 1.55-1.288.344-2.737.517-4.346.517-1.61 0-3.066-.173-4.37-.517-1.294-.352-2.399-.869-3.312-1.55a6.915 6.915 0 0 1-2.111-2.538c-.495-1.018-.742-2.19-.742-3.515 0-1.325.248-2.493.742-3.504a6.891 6.891 0 0 1 2.11-2.55c.914-.68 2.019-1.194 3.314-1.538C44.494.352 45.95.176 47.56.176c1.61 0 3.058.176 4.346.528 1.295.345 2.396.857 3.302 1.539a6.834 6.834 0 0 1 2.088 2.549c.487 1.01.73 2.179.73 3.504Zm-4.211 0c0-.577-.094-1.15-.28-1.718a3.655 3.655 0 0 0-.978-1.55c-.464-.457-1.1-.827-1.91-1.112-.808-.284-1.837-.427-3.087-.427-.839 0-1.576.068-2.213.202-.636.128-1.187.307-1.65.54a4.446 4.446 0 0 0-1.169.82c-.314.306-.565.64-.752.999a4.21 4.21 0 0 0-.404 1.112 5.882 5.882 0 0 0 0 2.29c.082.39.217.764.404 1.124.187.352.438.681.752.988.315.307.704.576 1.168.809a7.239 7.239 0 0 0 1.651.539c.637.127 1.374.19 2.213.19 1.25 0 2.28-.142 3.088-.426.808-.285 1.445-.655 1.91-1.112.47-.457.797-.97.976-1.539.187-.576.28-1.153.28-1.73Z"/><path fill="url(#f)" d="M35.408 4.062a10.587 10.587 0 0 0-.494-.146 7.502 7.502 0 0 0-.741-.19 9.37 9.37 0 0 0-.944-.17 7.898 7.898 0 0 0-1.044-.067c-.749 0-1.449.094-2.1.281a8.54 8.54 0 0 0-1.808.73c-.562.3-1.086.644-1.572 1.033-.48.382-.921.775-1.326 1.18V16h-4.166V.57h4.166v2.504a31.432 31.432 0 0 1 1.539-1.078 13.305 13.305 0 0 1 1.65-.933 9.878 9.878 0 0 1 1.82-.64A8.04 8.04 0 0 1 33.23.221a14.4 14.4 0 0 1 1.572.213c.233.045.435.09.607.135v3.493Z"/><path fill="url(#g)" d="M17.754 5.836c0 .772-.112 1.483-.337 2.134a4.135 4.135 0 0 1-1.09 1.674c-.494.464-1.137.827-1.931 1.089s-1.76.393-2.898.393H4.582V16H.414V.57h11.084c1.139 0 2.104.13 2.898.392.794.255 1.438.618 1.932 1.09a4.048 4.048 0 0 1 1.089 1.662c.225.644.337 1.351.337 2.122Zm-4.212.068c0-.36-.052-.667-.157-.921a1.344 1.344 0 0 0-.494-.64c-.232-.165-.535-.285-.91-.36-.374-.082-.834-.123-1.38-.123H4.58v3.975h6.02a8.91 8.91 0 0 0 1.38-.09c.375-.067.678-.175.91-.325.232-.157.397-.36.494-.607.105-.247.158-.55.158-.91Z"/><defs><linearGradient id="a" x1=".414" x2="142" y1="8.296" y2="16" gradientUnits="userSpaceOnUse"><stop stop-color="#9629FF"/><stop offset="1" stop-color="#C05FC3"/></linearGradient><linearGradient id="b" x1=".414" x2="142" y1="8.296" y2="16" gradientUnits="userSpaceOnUse"><stop stop-color="#9629FF"/><stop offset="1" stop-color="#C05FC3"/></linearGradient><linearGradient id="c" x1=".414" x2="142" y1="8.296" y2="16" gradientUnits="userSpaceOnUse"><stop stop-color="#9629FF"/><stop offset="1" stop-color="#C05FC3"/></linearGradient><linearGradient id="d" x1=".414" x2="142" y1="8.296" y2="16" gradientUnits="userSpaceOnUse"><stop stop-color="#9629FF"/><stop offset="1" stop-color="#C05FC3"/></linearGradient><linearGradient id="e" x1=".414" x2="142" y1="8.296" y2="16" gradientUnits="userSpaceOnUse"><stop stop-color="#9629FF"/><stop offset="1" stop-color="#C05FC3"/></linearGradient><linearGradient id="f" x1=".414" x2="142" y1="8.296" y2="16" gradientUnits="userSpaceOnUse"><stop stop-color="#9629FF"/><stop offset="1" stop-color="#C05FC3"/></linearGradient><linearGradient id="g" x1=".414" x2="142" y1="8.296" y2="16" gradientUnits="userSpaceOnUse"><stop stop-color="#9629FF"/><stop offset="1" stop-color="#C05FC3"/></linearGradient></defs></svg>