<svg xmlns="http://www.w3.org/2000/svg" width="59" height="59" fill="none"><path stroke="url(#a)" stroke-linecap="round" stroke-linejoin="round" stroke-width="2.5" d="M36.333 23.667a9.5 9.5 0 0 1 9.5 9.5V44.25H39.5V33.167a3.167 3.167 0 1 0-6.333 0V44.25h-6.334V33.167a9.5 9.5 0 0 1 9.5-9.5Z"/><path stroke="url(#b)" stroke-linecap="round" stroke-linejoin="round" stroke-width="2.5" d="M20.5 25.25h-6.333v19H20.5v-19Z"/><path stroke="url(#c)" stroke-linecap="round" stroke-linejoin="round" stroke-width="2.5" d="M17.333 20.5a3.167 3.167 0 1 0 0-6.333 3.167 3.167 0 0 0 0 6.333Z"/><defs><linearGradient id="a" x1="15.275" x2="41.262" y1="13.867" y2="44.523" gradientUnits="userSpaceOnUse"><stop stop-color="#9020A8"/><stop offset="1" stop-color="#C853FF"/></linearGradient><linearGradient id="b" x1="15.275" x2="41.262" y1="13.867" y2="44.523" gradientUnits="userSpaceOnUse"><stop stop-color="#9020A8"/><stop offset="1" stop-color="#C853FF"/></linearGradient><linearGradient id="c" x1="15.275" x2="41.262" y1="13.867" y2="44.523" gradientUnits="userSpaceOnUse"><stop stop-color="#9020A8"/><stop offset="1" stop-color="#C853FF"/></linearGradient></defs></svg>