<svg xmlns="http://www.w3.org/2000/svg" width="61" height="24" fill="none"><mask id="a" width="61" height="24" x="0" y="0" maskUnits="userSpaceOnUse" style="mask-type:luminance"><path fill="#fff" d="M61 .31H.071v23.38H61V.31Z"/></mask><g fill="#fff" mask="url(#a)"><path d="M14.534.31A8.98 8.98 0 0 0 8.19 2.932L2.699 8.41a8.94 8.94 0 0 0-2.628 6.33c0 4.943 4.017 8.95 8.972 8.95 2.38 0 4.661-.943 6.344-2.622l3.798-3.79L30.25 6.239a4.29 4.29 0 0 1 7.105 1.697l3.492-3.484A8.97 8.97 0 0 0 33.281.31c-2.38 0-4.661.942-6.344 2.62L12.073 17.76a4.29 4.29 0 0 1-3.03 1.253 4.28 4.28 0 0 1-4.285-4.275 4.27 4.27 0 0 1 1.255-3.023l5.491-5.478a4.29 4.29 0 0 1 7.105 1.697L22.1 4.451A8.97 8.97 0 0 0 14.534.31Z"/><path d="M30.82 17.762a4.29 4.29 0 0 1-7.104-1.697l-3.493 3.485a8.97 8.97 0 0 0 7.567 4.14 8.98 8.98 0 0 0 6.344-2.622l14.865-14.83a4.289 4.289 0 0 1 3.03-1.252 4.28 4.28 0 0 1 4.284 4.275 4.269 4.269 0 0 1-1.255 3.023l-5.491 5.478a4.288 4.288 0 0 1-7.104-1.697L38.97 19.55a8.97 8.97 0 0 0 7.567 4.14c2.38 0 4.662-.942 6.344-2.62l5.491-5.479A8.94 8.94 0 0 0 61 9.26C61 4.318 56.983.31 52.028.31a8.979 8.979 0 0 0-6.343 2.622L30.82 17.762Z"/></g></svg>